<?xml version="1.0" encoding="UTF-8" standalone="no"?>
<!DOCTYPE svg PUBLIC "-//W3C//DTD SVG 1.1//EN" "http://www.w3.org/Graphics/SVG/1.1/DTD/svg11.dtd">
<svg width="100%" height="100%" viewBox="0 0 2363 2363" version="1.1" xmlns="http://www.w3.org/2000/svg" xmlns:xlink="http://www.w3.org/1999/xlink" xml:space="preserve" xmlns:serif="http://www.serif.com/" style="fill-rule:evenodd;clip-rule:evenodd;stroke-linejoin:round;stroke-miterlimit:2;">
    <g transform="matrix(9.256166,0,0,9.256166,-12397.859291,-36951.614456)">
        <path d="M1467.018,4011.423C1467.018,4011.423 1528.943,4011.232 1528.943,4019.885L1528.943,4146.38C1528.943,4159.933 1506.715,4219.295 1498.091,4227.919C1497.993,4228.017 1467.018,4227.994 1467.018,4227.994C1467.018,4227.994 1436.043,4228.017 1435.945,4227.919C1427.321,4219.295 1405.093,4159.933 1405.093,4146.38L1405.093,4019.885C1405.093,4011.232 1467.018,4011.423 1467.018,4011.423Z" style="fill:url(#_Radial1);"/>
    </g>
    <g transform="matrix(9.256166,0,0,9.256166,-12397.859291,-36951.614456)">
        <path d="M1467.018,4010.923C1467.302,4010.922 1506.802,4010.824 1522.636,4015.201C1525.097,4015.881 1526.998,4016.678 1528.13,4017.583C1529.001,4018.281 1529.443,4019.058 1529.443,4019.885L1529.443,4146.38C1529.443,4154.54 1521.432,4179.254 1513.139,4199.584C1507.596,4213.173 1501.915,4224.802 1498.444,4228.273L1498.291,4228.377L1498.145,4228.417C1498.077,4228.427 1497.747,4228.438 1497.204,4228.445C1492.125,4228.512 1467.13,4228.494 1467.018,4228.494C1466.906,4228.494 1441.911,4228.512 1436.832,4228.445C1436.289,4228.438 1435.959,4228.427 1435.891,4228.417L1435.745,4228.377L1435.592,4228.273C1432.121,4224.802 1426.44,4213.173 1420.897,4199.584C1412.603,4179.254 1404.593,4154.54 1404.593,4146.38L1404.593,4019.885C1404.593,4019.058 1405.035,4018.281 1405.906,4017.583C1407.038,4016.678 1408.939,4015.881 1411.4,4015.201C1427.234,4010.824 1466.734,4010.922 1467.018,4010.923ZM1436.166,4227.43C1436.318,4227.435 1436.571,4227.441 1436.846,4227.445C1441.934,4227.513 1467.018,4227.494 1467.018,4227.494C1467.018,4227.494 1492.102,4227.513 1497.19,4227.445C1497.464,4227.441 1497.718,4227.435 1497.869,4227.43C1501.308,4223.843 1506.807,4212.459 1512.213,4199.206C1520.449,4179.016 1528.443,4154.484 1528.443,4146.38L1528.443,4019.885C1528.443,4019.328 1528.093,4018.834 1527.505,4018.364C1526.449,4017.519 1524.665,4016.799 1522.37,4016.164C1506.556,4011.793 1467.019,4011.923 1467.019,4011.923L1467.016,4011.923C1467.016,4011.923 1427.48,4011.793 1411.666,4016.164C1409.371,4016.799 1407.587,4017.519 1406.531,4018.364C1405.943,4018.834 1405.593,4019.328 1405.593,4019.885L1405.593,4146.38C1405.593,4154.484 1413.586,4179.016 1421.822,4199.206C1427.229,4212.459 1432.728,4223.843 1436.166,4227.43Z" style="fill:rgb(90,90,90);"/>
    </g>
    <defs>
        <radialGradient id="_Radial1" cx="0" cy="0" r="1" gradientUnits="userSpaceOnUse" gradientTransform="matrix(150.346997,189.180634,-115.545367,91.827047,1545.294922,4029.052687)"><stop offset="0" style="stop-color:rgb(185,185,185);stop-opacity:1"/><stop offset="0.52" style="stop-color:rgb(49,49,49);stop-opacity:1"/><stop offset="1" style="stop-color:black;stop-opacity:1"/></radialGradient>
    </defs>
</svg>
